<svg width="1655" height="200" viewBox="0 0 1655 200" fill="none" xmlns="http://www.w3.org/2000/svg">
<path d="M500 160V200L700 120V100V80L500 0V40L652.98 100L500 160Z" fill="#061C2C"/>
<path d="M300 200C326.522 200 351.957 189.464 370.711 170.711C389.464 151.957 400 126.522 400 100C400 73.4784 389.464 48.043 370.711 29.2893C351.957 10.5357 326.522 4.00466e-06 300 0L300 40C315.913 40 331.174 46.3214 342.426 57.5736C353.679 68.8258 360 84.087 360 100C360 115.913 353.679 131.174 342.426 142.426C331.174 153.679 315.913 160 300 160V200Z" fill="#061C2C"/>
<path d="M1015 100C1015 126.522 1025.54 151.957 1044.29 170.711C1063.04 189.464 1088.48 200 1115 200C1141.52 200 1166.96 189.464 1185.71 170.711C1204.46 151.957 1215 126.522 1215 100L1175 100C1175 115.913 1168.68 131.174 1157.43 142.426C1146.17 153.679 1130.91 160 1115 160C1099.09 160 1083.83 153.679 1072.57 142.426C1061.32 131.174 1055 115.913 1055 100H1015Z" fill="#061C2C"/>
<path d="M1655 100C1655 73.4784 1644.46 48.043 1625.71 29.2893C1606.96 10.5357 1581.52 2.00233e-06 1555 0C1528.48 -2.00233e-06 1503.04 10.5357 1484.29 29.2893C1465.54 48.0429 1455 73.4783 1455 100L1495 100C1495 84.087 1501.32 68.8258 1512.57 57.5736C1523.83 46.3214 1539.09 40 1555 40C1570.91 40 1586.17 46.3214 1597.43 57.5736C1608.68 68.8258 1615 84.087 1615 100H1655Z" fill="#061C2C"/>
<rect x="1315" width="40" height="200" fill="#061C2C"/>
<rect y="120" width="40" height="200" transform="rotate(-90 0 120)" fill="#061C2C"/>
<path d="M800 0L840 0L915 200H875L800 0Z" fill="#061C2C"/>
</svg>
