<svg width="373" height="372" viewBox="0 0 373 372" fill="none" xmlns="http://www.w3.org/2000/svg">
<path fill-rule="evenodd" clip-rule="evenodd" d="M0.783092 168H61.0657C62.5076 156.841 65.2851 146.175 69.3982 136C75.7316 120 84.5649 106 95.8982 94C107.565 82 121.065 72.6667 136.398 66C151.732 59.3334 168.232 56 185.898 56C203.565 56 220.065 59.3334 235.398 66C250.732 72.6667 264.065 82 275.398 94C286.732 106 295.732 119.833 302.398 135.5C306.765 145.761 309.701 156.595 311.208 168H371.483C369.623 149.483 364.928 131.816 357.398 115C347.732 92.6667 334.232 72.8334 316.898 55.5C299.898 38.1667 280.065 24.6667 257.398 15C235.065 5.00001 211.232 0 185.898 0C160.232 0 136.065 5.00001 113.398 15C91.0649 24.6667 71.3982 38.1667 54.3982 55.5C37.3982 72.8334 24.0649 92.6667 14.3982 115C7.11955 131.816 2.58117 149.483 0.783092 168ZM372.29 193H312.251C311.54 208.567 308.256 223.234 302.398 237C296.065 252.667 287.232 266.5 275.898 278.5C264.565 290.167 251.232 299.333 235.898 306C220.898 312.667 204.732 316 187.398 316C169.398 316 152.732 312.667 137.398 306C122.065 299.333 108.565 290.167 96.8982 278.5C85.2316 266.5 76.0649 252.667 69.3982 237C63.8333 223.234 60.7132 208.567 60.0381 193H0C0.742049 216.566 5.54145 238.732 14.3982 259.5C24.0649 281.833 37.3982 301.5 54.3982 318.5C71.3982 335.167 91.0649 348.333 113.398 358C135.732 367.333 159.898 372 185.898 372C211.232 372 235.065 367.333 257.398 358C280.065 348.333 299.898 335 316.898 318C334.232 300.667 347.732 280.833 357.398 258.5C366.549 238.062 371.513 216.229 372.29 193Z" fill="#ffffff"/>
</svg>
