<svg width="1395" height="386" viewBox="0 0 1395 386" fill="none" xmlns="http://www.w3.org/2000/svg">
<g clip-path="url(#clip0_33_6)">
<path d="M405 6.99997H477.5V375H405V6.99997ZM768.98 96C754.98 88.3333 740.647 82 725.98 77C711.647 72 698.147 69.5 685.48 69.5C669.814 69.5 657.48 72.6667 648.48 79C639.48 85.3333 634.98 94.8333 634.98 107.5C634.98 116.167 638.314 124 644.98 131C651.98 137.667 660.814 143.667 671.48 149C682.48 154.333 693.814 159.167 705.48 163.5C716.147 167.5 726.647 172.333 736.98 178C747.647 183.333 757.147 190.167 765.48 198.5C773.814 206.5 780.48 216.667 785.48 229C790.48 241 792.98 255.833 792.98 273.5C792.98 292.167 788.147 309.5 778.48 325.5C768.814 341.5 754.647 354.5 735.98 364.5C717.314 374.167 694.314 379 666.98 379C652.98 379 638.647 377.667 623.98 375C609.647 372 595.48 367.667 581.48 362C567.48 356 553.98 348.5 540.98 339.5L572.98 283C581.647 289.333 590.98 295 600.98 300C611.314 304.667 621.647 308.333 631.98 311C642.314 313.667 651.814 315 660.48 315C669.147 315 677.814 313.833 686.48 311.5C695.48 308.833 702.814 304.5 708.48 298.5C714.48 292.5 717.48 284.167 717.48 273.5C717.48 266.167 714.98 259.5 709.98 253.5C705.314 247.5 698.814 242 690.48 237C682.48 232 673.647 227.667 663.98 224C652.647 219.667 640.98 214.667 628.98 209C616.98 203.333 605.647 196.5 594.98 188.5C584.647 180.167 576.147 170 569.48 158C563.147 145.667 559.98 130.667 559.98 113C559.98 91.6667 564.647 73.1667 573.98 57.5C583.647 41.8333 597.147 29.5 614.48 20.5C631.814 11.1666 651.814 5.99998 674.48 5C704.147 5 728.147 8.49999 746.48 15.5C765.147 22.5 781.814 30.8333 796.48 40.5L768.98 96ZM863.984 6.99997H936.484V375H863.984V6.99997Z" fill="#061C2C"/>
<path d="M69.5 11H0L155.712 375H216.5L69.5 11Z" fill="#061C2C"/>
<path d="M363 13L246.5 276.5L216.5 204L293 13H363Z" fill="#061C2C"/>
<path d="M69.5 11H0L155.712 375H216.5L69.5 11Z" stroke="#061C2C"/>
<path d="M363 13L246.5 276.5L216.5 204L293 13H363Z" stroke="#061C2C"/>
<path fill-rule="evenodd" clip-rule="evenodd" d="M999.103 150H1060.91C1061.7 147.641 1062.57 145.308 1063.5 143C1069.83 127 1078.67 113 1090 101C1101.67 89 1115.17 79.6667 1130.5 73C1145.83 66.3334 1162.33 63 1180 63C1197.67 63 1214.17 66.3334 1229.5 73C1244.83 79.6667 1258.17 89 1269.5 101C1280.83 113 1289.83 126.833 1296.5 142.5C1297.55 144.967 1298.52 147.467 1299.4 150H1361.22C1358.81 140.418 1355.57 131.085 1351.5 122C1341.83 99.6667 1328.33 79.8334 1311 62.5C1294 45.1667 1274.17 31.6667 1251.5 22C1229.17 12 1205.33 7 1180 7C1154.33 7 1130.17 12 1107.5 22C1085.17 31.6667 1065.5 45.1667 1048.5 62.5C1031.5 79.8334 1018.17 99.6667 1008.5 122C1004.57 131.085 1001.44 140.418 999.103 150ZM1363.85 225H1302.81C1301.22 231.513 1299.12 237.847 1296.5 244C1290.17 259.667 1281.33 273.5 1270 285.5C1258.67 297.167 1245.33 306.333 1230 313C1215 319.667 1198.83 323 1181.5 323C1163.5 323 1146.83 319.667 1131.5 313C1116.17 306.333 1102.67 297.167 1091 285.5C1079.33 273.5 1070.17 259.667 1063.5 244C1061.01 237.847 1059.01 231.513 1057.5 225H996.496C998.843 239.404 1002.84 253.237 1008.5 266.5C1018.17 288.833 1031.5 308.5 1048.5 325.5C1065.5 342.167 1085.17 355.333 1107.5 365C1129.83 374.333 1154 379 1180 379C1205.33 379 1229.17 374.333 1251.5 365C1274.17 355.333 1294 342 1311 325C1328.33 307.667 1341.83 287.833 1351.5 265.5C1357.29 252.56 1361.41 239.06 1363.85 225Z" fill="#061C2C"/>
</g>
<defs>
<clipPath id="clip0_33_6">
<rect width="1395" height="386" fill="white"/>
</clipPath>
</defs>
</svg>
